<svg width="96" height="96" version="1.1" xmlns="http://www.w3.org/2000/svg">
<rect width="96" height="96" ry="24" fill="#31C0FF"/>
<path d="m51.902 69.787h2.3698l0.03646 6.9635q1.2031 1.8229 4.0833 3.099 2.9167 1.2396 6.1615 1.2396 5.9792 0 9.1875-2.8073 3.2448-2.8438 3.2448-7.9115 0-1.9688-0.875-3.4271-0.875-1.4583-2.3333-2.625t-3.3177-2.151q-1.8229-0.98438-3.7552-1.9688-1.9323-1.0208-3.7917-2.151-1.8229-1.1667-3.2813-2.6615-1.4583-1.5312-2.3333-3.5-0.875-1.9688-0.875-4.6302 0-6.4896 4.4115-9.9167 4.4115-3.4635 12.615-3.4635 6.2708 0 11.813 1.3854l-1.7865 10.172h-2.3698l-0.18229-6.2344q-1.1667-0.94792-3.2448-1.6042t-4.776-0.65625q-4.849 0-7.474 2.3698-2.625 2.3698-2.625 6.6354 0 2.2969 1.6406 4.1927t4.8854 3.5365q4.9583 2.5885 7.1458 3.9375t3.6458 2.8802q1.4948 1.5313 2.3698 3.5 0.91146 1.9688 0.91146 4.5208 0 7.5104-4.9219 11.521-4.8854 4.0104-14.146 4.0104-4.5938 0-8.276-0.91146-3.6458-0.94792-6.0521-2.4792zm-41.163-27.132q0-8.7865 3.6458-15.896 3.6458-7.1458 9.9531-10.974 6.3073-3.8281 14.401-3.8281 5.8698 0 10.536 2.4792 4.7031 2.4427 7.2917 6.9271 2.5885 4.4479 2.5885 10.062 0 7.2188-2.5885 13.599-2.5885 6.3802-7.2552 10.573t-10.901 5.6875q3.099 4.5573 4.4844 5.9427 1.3854 1.3854 2.8437 2.0052 1.4948 0.65625 3.3177 0.65625l3.026-0.14583-0.4375 2.4062q-0.91146 0.36458-3.3177 0.83854-2.3698 0.51042-4.0833 0.51042-3.7188 0-6.2344-1.9323-2.5156-1.8958-6.0521-7.6927l-1.0938-1.75q-5.8333-0.036459-10.464-2.5156-4.5938-2.5156-7.1458-6.9271-2.5156-4.4479-2.5156-10.026zm41.125-11.594q0-7.2917-3.7552-11.74-3.7188-4.4479-9.8438-4.4479-5.4323 0-9.9896 3.7188-4.5208 3.6823-7.401 10.573-2.8438 6.8906-2.8438 13.891 0 7.2188 3.6458 11.594 3.6823 4.375 9.7344 4.375 5.4323 0 10.026-3.6458 4.6302-3.6823 7.5104-10.573 2.9167-6.8906 2.9167-13.745z" fill="#fff"/>
</svg>
