<svg width="24" height="24" version="1.1" xmlns="http://www.w3.org/2000/svg">
<g transform="matrix(1.25,0,0,1.25,2,2)" fill="#d00">
<path d="m5 4c-0.5523 0-1 0.4477-1 1 0 0.2652 0.1055 0.5195 0.293 0.707l6 6c0.187 0.188 0.442 0.293 0.707 0.293 0.552 0 1-0.448 1-1 0-0.265-0.105-0.52-0.293-0.707l-6-6c-0.1875-0.1875-0.4418-0.293-0.707-0.293z"/>
<path d="m5 12c-0.5523 0-1-0.448-1-1 0-0.265 0.1055-0.52 0.293-0.707l6-6c0.187-0.188 0.442-0.293 0.707-0.293 0.552 0 1 0.448 1 1 0 0.265-0.105 0.52-0.293 0.707l-6 6c-0.1875 0.188-0.4418 0.293-0.707 0.293z"/>
</g>
</svg>
