<svg width="24" height="24" version="1" xmlns="http://www.w3.org/2000/svg">
<path d="m12 5a7 7 0 0 0-7 7 7 7 0 0 0 7 7 7 7 0 0 0 7-7 7 7 0 0 0-7-7zm0 2.0996c1.547 0 2.8008 1.2538 2.8008 2.8008 0 0.616-0.25334 1.1752-0.65234 1.5742l-0.62891 0.64453c-0.504 0.511-0.82031 0.93047-0.82031 1.9805h-1.3984v-0.34961c0-0.77 0.31436-1.4695 0.81836-1.9805l0.86719-0.88281c0.259-0.252 0.41406-0.60133 0.41406-0.98633 0-0.77-0.63039-1.4004-1.4004-1.4004s-1.4004 0.63039-1.4004 1.4004h-1.4004c0-1.547 1.2538-2.8008 2.8008-2.8008zm-0.69922 8.4004h1.3984v1.4004h-1.3984v-1.4004z"/>
</svg>
