<svg width="24" height="24" version="1" xmlns="http://www.w3.org/2000/svg">
<path d="m11.973 2c-0.473 0.0067-0.92526 0.19865-1.2598 0.5332l-8.1797 8.1797c-0.71054 0.71014-0.71054 1.8622 0 2.5723l8.1797 8.1816c0.71014 0.71054 1.8621 0.71054 2.5723 0l8.1816-8.1816c0.71054-0.71014 0.71054-1.8622 0-2.5723l-8.1816-8.1797c-0.347-0.3476-0.8215-0.5405-1.3125-0.5332zm0.027344 3c2.21 0 4 1.79 4 4 0 0.87999-0.3597 1.68-0.92969 2.25l-0.90039 0.91992c-0.72 0.73-1.1699 1.3301-1.1699 2.8301h-2v-0.5c0-1.1 0.44992-2.1001 1.1699-2.8301l1.2402-1.2598c0.37-0.36 0.58984-0.86015 0.58984-1.4102 0-1.1-0.89999-2-2-2s-2 0.89999-2 2h-2c0-2.21 1.79-4 4-4zm-1 12h2v2h-2v-2z" fill="#0000a9"/>
</svg>
